<svg width="391" height="48" viewBox="0 0 391 48" fill="none" xmlns="http://www.w3.org/2000/svg">
<path d="M10.0882 22.6825H17.9275C19.0841 22.6825 20.1979 22.5968 21.2688 22.4255C22.3398 22.2541 23.2822 21.9328 24.0961 21.4616C24.91 20.9476 25.5526 20.2407 26.0238 19.3412C26.5379 18.4416 26.7949 17.2635 26.7949 15.8071C26.7949 14.3506 26.5379 13.1725 26.0238 12.273C25.5526 11.3734 24.91 10.688 24.0961 10.2168C23.2822 9.7027 22.3398 9.36 21.2688 9.18865C20.1979 9.0173 19.0841 8.93163 17.9275 8.93163H10.0882V22.6825ZM0 1.09235H20.6905C23.5607 1.09235 26.0024 1.52073 28.0158 2.37748C30.0291 3.1914 31.6569 4.28375 32.8992 5.65456C34.1844 7.02536 35.1054 8.58893 35.6623 10.3453C36.262 12.1016 36.5618 13.9222 36.5618 15.8071C36.5618 17.6491 36.262 19.4697 35.6623 21.2688C35.1054 23.0252 34.1844 24.5887 32.8992 25.9596C31.6569 27.3304 30.0291 28.4441 28.0158 29.3009C26.0024 30.1148 23.5607 30.5218 20.6905 30.5218H10.0882V46.9714H0V1.09235Z" fill="#3B3B3B"/>
<path d="M46.7138 1.09235H56.8021V38.4895H79.1633V46.9714H46.7138V1.09235Z" fill="#3B3B3B"/>
<path d="M127.598 29.6222C127.598 35.8336 125.863 40.4601 122.393 43.5015C118.923 46.5002 114.126 47.9995 108 47.9995C101.788 47.9995 96.9691 46.5002 93.5421 43.5015C90.158 40.5029 88.4659 35.8764 88.4659 29.6222V1.09235H98.5541V29.6222C98.5541 30.8644 98.6612 32.0853 98.8754 33.2848C99.0896 34.4842 99.5394 35.5552 100.225 36.4976C100.91 37.3972 101.853 38.1468 103.052 38.7466C104.294 39.3034 105.944 39.5819 108 39.5819C111.598 39.5819 114.083 38.7894 115.454 37.2044C116.824 35.5766 117.51 33.0492 117.51 29.6222V1.09235H127.598V29.6222Z" fill="#3B3B3B"/>
<path d="M147.017 31.7426C147.017 33.2848 147.295 34.5913 147.852 35.6623C148.409 36.7332 149.137 37.6114 150.037 38.2968C150.979 38.9393 152.072 39.432 153.314 39.7747C154.556 40.0745 155.841 40.2245 157.169 40.2245C158.069 40.2245 159.033 40.1602 160.061 40.0317C161.089 39.8603 162.053 39.5605 162.953 39.1321C163.852 38.7037 164.602 38.1254 165.201 37.3972C165.801 36.6261 166.101 35.6623 166.101 34.5056C166.101 33.2634 165.694 32.2567 164.88 31.4856C164.109 30.7145 163.081 30.072 161.796 29.5579C160.511 29.0439 159.054 28.5941 157.426 28.2085C155.799 27.823 154.149 27.3946 152.479 26.9234C150.765 26.495 149.095 25.981 147.467 25.3812C145.839 24.7387 144.382 23.9248 143.097 22.9395C141.812 21.9542 140.763 20.7334 139.949 19.2769C139.178 17.7776 138.792 15.9784 138.792 13.8794C138.792 11.5233 139.285 9.48851 140.27 7.77501C141.298 6.01867 142.626 4.5622 144.254 3.40558C145.882 2.24897 147.724 1.39222 149.78 0.835329C151.836 0.278443 153.892 0 155.949 0C158.347 0 160.639 0.278443 162.824 0.835329C165.052 1.34938 167.022 2.20613 168.736 3.40558C170.449 4.60503 171.798 6.14719 172.784 8.03204C173.812 9.87405 174.326 12.123 174.326 14.779H164.559C164.473 13.4081 164.173 12.273 163.659 11.3734C163.188 10.4738 162.546 9.76696 161.732 9.25291C160.918 8.73886 159.975 8.37474 158.904 8.16055C157.876 7.94636 156.741 7.83927 155.499 7.83927C154.685 7.83927 153.871 7.92494 153.057 8.09629C152.243 8.26765 151.493 8.56751 150.808 8.99588C150.166 9.42426 149.63 9.95973 149.202 10.6023C148.773 11.2449 148.559 12.0588 148.559 13.044C148.559 13.9436 148.73 14.6719 149.073 15.2287C149.416 15.7856 150.08 16.2997 151.065 16.7709C152.093 17.2421 153.485 17.7133 155.242 18.1845C157.041 18.6558 159.376 19.2555 162.246 19.9837C163.102 20.1551 164.28 20.4763 165.78 20.9476C167.322 21.3759 168.843 22.0828 170.342 23.068C171.841 24.0533 173.126 25.3812 174.197 27.0519C175.311 28.6797 175.868 30.7788 175.868 33.349C175.868 35.4481 175.461 37.3972 174.647 39.1964C173.833 40.9955 172.612 42.5591 170.985 43.8871C169.4 45.1722 167.408 46.1789 165.009 46.9071C162.653 47.6354 159.911 47.9995 156.784 47.9995C154.256 47.9995 151.793 47.6782 149.394 47.0356C147.038 46.4359 144.939 45.4721 143.097 44.1441C141.298 42.8161 139.863 41.124 138.792 39.0678C137.721 37.0116 137.207 34.5699 137.25 31.7426H147.017Z" fill="#3B3B3B"/>
<path d="M234.862 41.7666C233.063 44.0798 231.071 45.7077 228.886 46.6501C226.702 47.5497 224.496 47.9995 222.268 47.9995C218.755 47.9995 215.585 47.3997 212.758 46.2003C209.974 44.958 207.618 43.2659 205.69 41.124C203.762 38.9822 202.284 36.4762 201.256 33.6061C200.228 30.6931 199.714 27.566 199.714 24.2246C199.714 20.7976 200.228 17.6276 201.256 14.7147C202.284 11.7589 203.762 9.18865 205.69 7.00394C207.618 4.81922 209.974 3.10572 212.758 1.86343C215.585 0.621144 218.755 0 222.268 0C224.624 0 226.895 0.364118 229.079 1.09235C231.307 1.77776 233.299 2.80586 235.055 4.17666C236.854 5.54746 238.332 7.23954 239.489 9.25291C240.645 11.2663 241.352 13.5795 241.609 16.1926H231.971C231.371 13.6223 230.214 11.6946 228.501 10.4095C226.787 9.1244 224.71 8.48183 222.268 8.48183C219.998 8.48183 218.07 8.93163 216.485 9.83122C214.9 10.688 213.615 11.866 212.63 13.3653C211.644 14.8218 210.916 16.4925 210.445 18.3773C210.017 20.2622 209.802 22.2113 209.802 24.2246C209.802 26.1523 210.017 28.0372 210.445 29.8792C210.916 31.6784 211.644 33.3062 212.63 34.7627C213.615 36.2191 214.9 37.3972 216.485 38.2968C218.07 39.1535 219.998 39.5819 222.268 39.5819C225.609 39.5819 228.18 38.7466 229.979 37.0759C231.821 35.3624 232.892 32.8992 233.192 29.6864H223.039V22.1684H242.316V46.9714H235.89L234.862 41.7666Z" fill="#C4963C"/>
<path d="M262.415 24.2246C262.415 26.1523 262.629 28.0372 263.057 29.8792C263.529 31.6784 264.257 33.3062 265.242 34.7627C266.227 36.2191 267.512 37.3972 269.097 38.2968C270.682 39.1535 272.61 39.5819 274.88 39.5819C277.151 39.5819 279.079 39.1535 280.664 38.2968C282.249 37.3972 283.534 36.2191 284.519 34.7627C285.504 33.3062 286.211 31.6784 286.639 29.8792C287.111 28.0372 287.346 26.1523 287.346 24.2246C287.346 22.2113 287.111 20.2622 286.639 18.3773C286.211 16.4925 285.504 14.8218 284.519 13.3653C283.534 11.866 282.249 10.688 280.664 9.83122C279.079 8.93163 277.151 8.48183 274.88 8.48183C272.61 8.48183 270.682 8.93163 269.097 9.83122C267.512 10.688 266.227 11.866 265.242 13.3653C264.257 14.8218 263.529 16.4925 263.057 18.3773C262.629 20.2622 262.415 22.2113 262.415 24.2246ZM252.326 24.2246C252.326 20.7976 252.841 17.6276 253.869 14.7147C254.897 11.7589 256.375 9.18865 258.302 7.00394C260.23 4.81922 262.586 3.10572 265.371 1.86343C268.198 0.621144 271.368 0 274.88 0C278.436 0 281.606 0.621144 284.39 1.86343C287.175 3.10572 289.531 4.81922 291.459 7.00394C293.386 9.18865 294.864 11.7589 295.892 14.7147C296.92 17.6276 297.434 20.7976 297.434 24.2246C297.434 27.566 296.92 30.6931 295.892 33.6061C294.864 36.4762 293.386 38.9822 291.459 41.124C289.531 43.2659 287.175 44.958 284.39 46.2003C281.606 47.3997 278.436 47.9995 274.88 47.9995C271.368 47.9995 268.198 47.3997 265.371 46.2003C262.586 44.958 260.23 43.2659 258.302 41.124C256.375 38.9822 254.897 36.4762 253.869 33.6061C252.841 30.6931 252.326 27.566 252.326 24.2246Z" fill="#C4963C"/>
<path d="M308.186 1.09235H318.274V38.4895H340.635V46.9714H308.186V1.09235Z" fill="#C4963C"/>
<path d="M360.219 38.4895H369.215C370.671 38.4895 372.085 38.2539 373.456 37.7827C374.826 37.3115 376.047 36.5404 377.118 35.4695C378.189 34.3557 379.046 32.9207 379.689 31.1643C380.331 29.408 380.652 27.2661 380.652 24.7387C380.652 22.4255 380.417 20.3478 379.946 18.5058C379.517 16.621 378.789 15.0146 377.761 13.6866C376.733 12.3586 375.362 11.3519 373.648 10.6665C371.978 9.93831 369.9 9.57419 367.416 9.57419H360.219V38.4895ZM350.131 1.09235H369.922C372.877 1.09235 375.619 1.56357 378.146 2.50599C380.717 3.44842 382.923 4.86206 384.765 6.74691C386.65 8.63176 388.106 10.9878 389.134 13.8151C390.205 16.6424 390.741 19.9623 390.741 23.7748C390.741 27.1162 390.312 30.2005 389.455 33.0277C388.599 35.855 387.292 38.2968 385.536 40.353C383.822 42.4092 381.659 44.037 379.046 45.2364C376.476 46.3931 373.434 46.9714 369.922 46.9714H350.131V1.09235Z" fill="#C4963C"/>
</svg>
